<svg xmlns="http://www.w3.org/2000/svg" viewBox="0 0 600 340" width="600" height="340">
<defs><linearGradient id="bg" x2="1" y2="1"><stop stop-color="#f4ead8"/><stop offset="1" stop-color="#dfcba6"/></linearGradient><filter id="shadow" x="-40%" y="-40%" width="180%" height="180%"><feDropShadow dx="0" dy="13" stdDeviation="15" flood-color="#805f3f" flood-opacity=".14"/></filter></defs>
<rect width="600" height="340" fill="url(#bg)"/><path d="M-30 12C180 -51 355 90 632 19" fill="none" stroke="#805f3f" opacity=".065"/><path d="M43 12C195 -51 346 163 632 92" fill="none" stroke="#805f3f" opacity=".065"/><path d="M116 12C210 -51 337 236 632 165" fill="none" stroke="#805f3f" opacity=".065"/><path d="M189 12C225 -51 328 309 632 238" fill="none" stroke="#805f3f" opacity=".065"/><path d="M262 12C240 -51 319 382 632 311" fill="none" stroke="#805f3f" opacity=".065"/>
<circle cx="520" cy="86" r="43" fill="#386a58" opacity=".24"/><circle cx="520" cy="86" r="28" fill="#386a58" opacity=".2"/>
<path d="M0 246C124 205 175 263 293 249s175-34 307-2" fill="none" stroke="#805f3f" stroke-width="1.4" opacity=".27"/>
<path d="M0 265Q145 216 286 276T600 250v90H0Z" fill="#dfcba6" opacity=".72"/><path d="M381 277v-44l22-12 22 12v44" fill="none" stroke="#805f3f" stroke-width="2" opacity=".28"/><path d="M392 245h10v11h-10" fill="none" stroke="#805f3f" stroke-width="1.5" opacity=".3"/><path d="M440 277v-36l22-12 22 12v36" fill="none" stroke="#805f3f" stroke-width="2" opacity=".28"/><path d="M451 253h10v11h-10" fill="none" stroke="#805f3f" stroke-width="1.5" opacity=".3"/><path d="M500 277v-32l22-12 22 12v32" fill="none" stroke="#805f3f" stroke-width="2" opacity=".28"/><path d="M511 257h10v11h-10" fill="none" stroke="#805f3f" stroke-width="1.5" opacity=".3"/><circle cx="38" cy="278" r="2" fill="#386a58" opacity=".45"/><circle cx="57" cy="268" r="3" fill="#386a58" opacity=".45"/><circle cx="76" cy="278" r="4" fill="#386a58" opacity=".45"/><circle cx="95" cy="268" r="2" fill="#386a58" opacity=".45"/><circle cx="114" cy="278" r="3" fill="#386a58" opacity=".45"/>
<path d="M35 246v-61m0 12c-17-21-28-14-34-5m34 5c8-22 22-24 32-17m-32 17c18-8 30-5 36 5" fill="none" stroke="#805f3f" stroke-width="2.5" stroke-linecap="round" opacity=".31"/>
<circle cx="285" cy="173" r="108" fill="#f4ead8" filter="url(#shadow)"/><circle cx="285" cy="173" r="87" fill="none" stroke="#386a58" stroke-width="1.7" opacity=".55"/>
<g transform="translate(201 89) scale(1.4)" fill="none" stroke="#805f3f" stroke-width="3.2" stroke-linecap="round" stroke-linejoin="round"><path d="M18 95h84M32 95V48h56v47M36 48q24-38 48 0M47 95V68q13-20 26 0v27M12 95V25m96 70V25"/></g>
<path d="M22 28h75" stroke="#805f3f" stroke-width="2" opacity=".36"/><circle cx="110" cy="28" r="4" fill="#386a58"/>
<path d="M22 315h556" stroke="#805f3f" stroke-width="1" opacity=".24"/><text x="24" y="304" font-family="Arial,sans-serif" font-size="12" letter-spacing="2" fill="#805f3f" opacity=".75">CH-017</text>
<circle cx="550" cy="304" r="9" fill="none" stroke="#805f3f" opacity=".45"/><circle cx="550" cy="304" r="3" fill="#386a58"/>
</svg>