<svg xmlns="http://www.w3.org/2000/svg" viewBox="0 0 600 340" width="600" height="340">
<defs><linearGradient id="bg" x2="1" y2="1"><stop stop-color="#e2ebef"/><stop offset="1" stop-color="#b3ced1"/></linearGradient><filter id="shadow" x="-40%" y="-40%" width="180%" height="180%"><feDropShadow dx="0" dy="13" stdDeviation="15" flood-color="#356b78" flood-opacity=".14"/></filter></defs>
<rect width="600" height="340" fill="url(#bg)"/><path d="M-30 12C180 -49 355 90 632 19" fill="none" stroke="#356b78" opacity=".065"/><path d="M69 12C195 -49 346 189 632 118" fill="none" stroke="#356b78" opacity=".065"/><path d="M168 12C210 -49 337 288 632 217" fill="none" stroke="#356b78" opacity=".065"/><path d="M267 12C225 -49 328 387 632 316" fill="none" stroke="#356b78" opacity=".065"/><path d="M366 12C240 -49 319 486 632 415" fill="none" stroke="#356b78" opacity=".065"/>
<circle cx="518" cy="86" r="43" fill="#b58d54" opacity=".24"/><circle cx="518" cy="86" r="28" fill="#b58d54" opacity=".2"/>
<path d="M0 246C124 207 175 263 293 249s175-34 307-2" fill="none" stroke="#356b78" stroke-width="1.4" opacity=".27"/>
<path d="M0 265Q145 218 286 276T600 250v90H0Z" fill="#b3ced1" opacity=".72"/><path d="M383 277v-43l22-12 22 12v43" fill="none" stroke="#356b78" stroke-width="2" opacity=".28"/><path d="M394 246h10v11h-10" fill="none" stroke="#356b78" stroke-width="1.5" opacity=".3"/><path d="M441 277v-35l22-12 22 12v35" fill="none" stroke="#356b78" stroke-width="2" opacity=".28"/><path d="M452 254h10v11h-10" fill="none" stroke="#356b78" stroke-width="1.5" opacity=".3"/><path d="M501 277v-41l22-12 22 12v41" fill="none" stroke="#356b78" stroke-width="2" opacity=".28"/><path d="M512 248h10v11h-10" fill="none" stroke="#356b78" stroke-width="1.5" opacity=".3"/><circle cx="38" cy="278" r="2" fill="#b58d54" opacity=".45"/><circle cx="55" cy="268" r="3" fill="#b58d54" opacity=".45"/><circle cx="72" cy="278" r="4" fill="#b58d54" opacity=".45"/><circle cx="89" cy="268" r="2" fill="#b58d54" opacity=".45"/><circle cx="106" cy="278" r="3" fill="#b58d54" opacity=".45"/>
<path d="M35 246v-61m0 12c-17-21-28-14-34-5m34 5c8-22 22-24 32-17m-32 17c18-8 30-5 36 5" fill="none" stroke="#356b78" stroke-width="2.5" stroke-linecap="round" opacity=".31"/>
<rect x="196" y="57" width="204" height="204" rx="48" fill="#e2ebef" transform="rotate(-8 298 162)" filter="url(#shadow)"/><circle cx="298" cy="162" r="87" fill="none" stroke="#b58d54" stroke-width="1.7" opacity=".55"/>
<g transform="translate(214 78) scale(1.4)" fill="none" stroke="#356b78" stroke-width="3.2" stroke-linecap="round" stroke-linejoin="round"><circle cx="60" cy="62" r="39"/><path d="m60 37 17 11-6 20H49l-6-20zm-17 11-16-6m22 26-13 19m35-19 13 19m-7-39 16-6"/></g>
<path d="M22 28h75" stroke="#356b78" stroke-width="2" opacity=".36"/><circle cx="110" cy="28" r="4" fill="#b58d54"/>
<path d="M22 315h556" stroke="#356b78" stroke-width="1" opacity=".24"/><text x="24" y="304" font-family="Arial,sans-serif" font-size="12" letter-spacing="2" fill="#356b78" opacity=".75">MR-006</text>
<circle cx="550" cy="304" r="9" fill="none" stroke="#356b78" opacity=".45"/><circle cx="550" cy="304" r="3" fill="#b58d54"/>
</svg>