<svg xmlns="http://www.w3.org/2000/svg" viewBox="0 0 600 340" width="600" height="340">
<defs><linearGradient id="bg" x2="1" y2="1"><stop stop-color="#e8e5da"/><stop offset="1" stop-color="#d3c6ae"/></linearGradient><filter id="shadow" x="-40%" y="-40%" width="180%" height="180%"><feDropShadow dx="0" dy="13" stdDeviation="15" flood-color="#536b61" flood-opacity=".14"/></filter></defs>
<rect width="600" height="340" fill="url(#bg)"/><path d="M-30 12C180 -31 355 90 632 19" fill="none" stroke="#536b61" opacity=".065"/><path d="M30 12C195 -31 346 150 632 79" fill="none" stroke="#536b61" opacity=".065"/><path d="M90 12C210 -31 337 210 632 139" fill="none" stroke="#536b61" opacity=".065"/><path d="M150 12C225 -31 328 270 632 199" fill="none" stroke="#536b61" opacity=".065"/><path d="M210 12C240 -31 319 330 632 259" fill="none" stroke="#536b61" opacity=".065"/>
<circle cx="500" cy="86" r="43" fill="#ad794e" opacity=".24"/><circle cx="500" cy="86" r="28" fill="#ad794e" opacity=".2"/>
<path d="M0 246C124 225 175 263 293 249s175-34 307-2" fill="none" stroke="#536b61" stroke-width="1.4" opacity=".27"/>
<path d="M0 275Q122 293 252 260T600 281v59H0Z" fill="#d3c6ae" opacity=".75"/><path d="M46 277v-43l22-12 22 12v43" fill="none" stroke="#536b61" stroke-width="2" opacity=".28"/><path d="M57 246h10v11h-10" fill="none" stroke="#536b61" stroke-width="1.5" opacity=".3"/><path d="M111 277v-35l22-12 22 12v35" fill="none" stroke="#536b61" stroke-width="2" opacity=".28"/><path d="M122 254h10v11h-10" fill="none" stroke="#536b61" stroke-width="1.5" opacity=".3"/><path d="M169 277v-41l22-12 22 12v41" fill="none" stroke="#536b61" stroke-width="2" opacity=".28"/><path d="M180 248h10v11h-10" fill="none" stroke="#536b61" stroke-width="1.5" opacity=".3"/><circle cx="38" cy="278" r="2" fill="#ad794e" opacity=".45"/><circle cx="59" cy="268" r="3" fill="#ad794e" opacity=".45"/><circle cx="80" cy="278" r="4" fill="#ad794e" opacity=".45"/><circle cx="101" cy="268" r="2" fill="#ad794e" opacity=".45"/><circle cx="122" cy="278" r="3" fill="#ad794e" opacity=".45"/>
<path d="M35 246v-61m0 12c-17-21-28-14-34-5m34 5c8-22 22-24 32-17m-32 17c18-8 30-5 36 5" fill="none" stroke="#536b61" stroke-width="2.5" stroke-linecap="round" opacity=".31"/>
<circle cx="389" cy="174" r="108" fill="#e8e5da" filter="url(#shadow)"/><circle cx="389" cy="174" r="87" fill="none" stroke="#ad794e" stroke-width="1.7" opacity=".55"/>
<g transform="translate(305 90) scale(1.4)" fill="none" stroke="#536b61" stroke-width="3.2" stroke-linecap="round" stroke-linejoin="round"><path d="M32 42a28 28 0 0 1 56 0v57H32V42Zm0 16h56M48 72h24M45 99v-9m30 9v-9"/></g>
<path d="M22 28h75" stroke="#536b61" stroke-width="2" opacity=".36"/><circle cx="110" cy="28" r="4" fill="#ad794e"/>
<path d="M22 315h556" stroke="#536b61" stroke-width="1" opacity=".24"/><text x="24" y="304" font-family="Arial,sans-serif" font-size="12" letter-spacing="2" fill="#536b61" opacity=".75">MR-048</text>
<circle cx="550" cy="304" r="9" fill="none" stroke="#536b61" opacity=".45"/><circle cx="550" cy="304" r="3" fill="#ad794e"/>
</svg>