<svg xmlns="http://www.w3.org/2000/svg" viewBox="0 0 600 340" width="600" height="340">
<defs><linearGradient id="bg" x2="1" y2="1"><stop stop-color="#e5eee7"/><stop offset="1" stop-color="#b8d2bf"/></linearGradient><filter id="shadow" x="-40%" y="-40%" width="180%" height="180%"><feDropShadow dx="0" dy="13" stdDeviation="15" flood-color="#1c6859" flood-opacity=".14"/></filter></defs>
<rect width="600" height="340" fill="url(#bg)"/><path d="M-30 12C180 -43 355 90 632 19" fill="none" stroke="#1c6859" opacity=".065"/><path d="M56 12C195 -43 346 176 632 105" fill="none" stroke="#1c6859" opacity=".065"/><path d="M142 12C210 -43 337 262 632 191" fill="none" stroke="#1c6859" opacity=".065"/><path d="M228 12C225 -43 328 348 632 277" fill="none" stroke="#1c6859" opacity=".065"/><path d="M314 12C240 -43 319 434 632 363" fill="none" stroke="#1c6859" opacity=".065"/>
<circle cx="512" cy="86" r="43" fill="#a77a46" opacity=".24"/><circle cx="512" cy="86" r="28" fill="#a77a46" opacity=".2"/>
<path d="M0 246C124 213 175 263 293 249s175-34 307-2" fill="none" stroke="#1c6859" stroke-width="1.4" opacity=".27"/>
<path d="M0 275Q122 305 252 260T600 281v59H0Z" fill="#b8d2bf" opacity=".75"/><path d="M376 277v-34l22-12 22 12v34" fill="none" stroke="#1c6859" stroke-width="2" opacity=".28"/><path d="M387 255h10v11h-10" fill="none" stroke="#1c6859" stroke-width="1.5" opacity=".3"/><path d="M437 277v-41l22-12 22 12v41" fill="none" stroke="#1c6859" stroke-width="2" opacity=".28"/><path d="M448 248h10v11h-10" fill="none" stroke="#1c6859" stroke-width="1.5" opacity=".3"/><path d="M499 277v-44l22-12 22 12v44" fill="none" stroke="#1c6859" stroke-width="2" opacity=".28"/><path d="M510 245h10v11h-10" fill="none" stroke="#1c6859" stroke-width="1.5" opacity=".3"/><circle cx="38" cy="278" r="2" fill="#a77a46" opacity=".45"/><circle cx="58" cy="268" r="3" fill="#a77a46" opacity=".45"/><circle cx="78" cy="278" r="4" fill="#a77a46" opacity=".45"/><circle cx="98" cy="268" r="2" fill="#a77a46" opacity=".45"/><circle cx="118" cy="278" r="3" fill="#a77a46" opacity=".45"/>
<path d="M35 246v-61m0 12c-17-21-28-14-34-5m34 5c8-22 22-24 32-17m-32 17c18-8 30-5 36 5" fill="none" stroke="#1c6859" stroke-width="2.5" stroke-linecap="round" opacity=".31"/>
<rect x="95" y="76" width="204" height="204" rx="48" fill="#e5eee7" transform="rotate(-8 197 181)" filter="url(#shadow)"/><circle cx="197" cy="181" r="87" fill="none" stroke="#a77a46" stroke-width="1.7" opacity=".55"/>
<g transform="translate(113 97) scale(1.4)" fill="none" stroke="#1c6859" stroke-width="3.2" stroke-linecap="round" stroke-linejoin="round"><path d="M26 95h68V51H26zM34 51V29h52v22M43 65h34M43 77h34M60 51v44M20 95h80"/><path d="M60 16c-10 9-13 15-13 21a13 13 0 0 0 26 0c0-6-3-12-13-21Z"/></g>
<path d="M22 28h75" stroke="#1c6859" stroke-width="2" opacity=".36"/><circle cx="110" cy="28" r="4" fill="#a77a46"/>
<path d="M22 315h556" stroke="#1c6859" stroke-width="1" opacity=".24"/><text x="24" y="304" font-family="Arial,sans-serif" font-size="12" letter-spacing="2" fill="#1c6859" opacity=".75">MR-052</text>
<circle cx="550" cy="304" r="9" fill="none" stroke="#1c6859" opacity=".45"/><circle cx="550" cy="304" r="3" fill="#a77a46"/>
</svg>