<svg xmlns="http://www.w3.org/2000/svg" viewBox="0 0 600 340" width="600" height="340">
<defs><linearGradient id="bg" x2="1" y2="1"><stop stop-color="#f4ead8"/><stop offset="1" stop-color="#dfcba6"/></linearGradient><filter id="shadow" x="-40%" y="-40%" width="180%" height="180%"><feDropShadow dx="0" dy="13" stdDeviation="15" flood-color="#805f3f" flood-opacity=".14"/></filter></defs>
<rect width="600" height="340" fill="url(#bg)"/><path d="M-30 12C180 -3 355 90 632 19" fill="none" stroke="#805f3f" opacity=".065"/><path d="M69 12C195 -3 346 189 632 118" fill="none" stroke="#805f3f" opacity=".065"/><path d="M168 12C210 -3 337 288 632 217" fill="none" stroke="#805f3f" opacity=".065"/><path d="M267 12C225 -3 328 387 632 316" fill="none" stroke="#805f3f" opacity=".065"/><path d="M366 12C240 -3 319 486 632 415" fill="none" stroke="#805f3f" opacity=".065"/>
<circle cx="472" cy="86" r="43" fill="#386a58" opacity=".24"/><circle cx="472" cy="86" r="28" fill="#386a58" opacity=".2"/>
<path d="M0 246C124 253 175 263 293 249s175-34 307-2" fill="none" stroke="#805f3f" stroke-width="1.4" opacity=".27"/>
<path d="M0 265Q145 264 286 276T600 250v90H0Z" fill="#dfcba6" opacity=".72"/><path d="M380 277v-42l22-12 22 12v42" fill="none" stroke="#805f3f" stroke-width="2" opacity=".28"/><path d="M391 247h10v11h-10" fill="none" stroke="#805f3f" stroke-width="1.5" opacity=".3"/><path d="M439 277v-35l22-12 22 12v35" fill="none" stroke="#805f3f" stroke-width="2" opacity=".28"/><path d="M450 254h10v11h-10" fill="none" stroke="#805f3f" stroke-width="1.5" opacity=".3"/><path d="M505 277v-41l22-12 22 12v41" fill="none" stroke="#805f3f" stroke-width="2" opacity=".28"/><path d="M516 248h10v11h-10" fill="none" stroke="#805f3f" stroke-width="1.5" opacity=".3"/><circle cx="38" cy="278" r="2" fill="#386a58" opacity=".45"/><circle cx="57" cy="268" r="3" fill="#386a58" opacity=".45"/><circle cx="76" cy="278" r="4" fill="#386a58" opacity=".45"/><circle cx="95" cy="268" r="2" fill="#386a58" opacity=".45"/><circle cx="114" cy="278" r="3" fill="#386a58" opacity=".45"/>
<path d="M35 246v-61m0 12c-17-21-28-14-34-5m34 5c8-22 22-24 32-17m-32 17c18-8 30-5 36 5" fill="none" stroke="#805f3f" stroke-width="2.5" stroke-linecap="round" opacity=".31"/>
<circle cx="301" cy="171" r="108" fill="#f4ead8" filter="url(#shadow)"/><circle cx="301" cy="171" r="87" fill="none" stroke="#386a58" stroke-width="1.7" opacity=".55"/>
<g transform="translate(217 87) scale(1.4)" fill="none" stroke="#805f3f" stroke-width="3.2" stroke-linecap="round" stroke-linejoin="round"><path d="m20 48 40-22 40 22v49H20zM30 48h60M44 60h12v14H44zM64 60h12v14H64zM53 97V82h14v15M60 26V16m0 0h16"/></g>
<path d="M22 28h75" stroke="#805f3f" stroke-width="2" opacity=".36"/><circle cx="110" cy="28" r="4" fill="#386a58"/>
<path d="M22 315h556" stroke="#805f3f" stroke-width="1" opacity=".24"/><text x="24" y="304" font-family="Arial,sans-serif" font-size="12" letter-spacing="2" fill="#805f3f" opacity=".75">MR-056</text>
<circle cx="550" cy="304" r="9" fill="none" stroke="#805f3f" opacity=".45"/><circle cx="550" cy="304" r="3" fill="#386a58"/>
</svg>