<svg xmlns="http://www.w3.org/2000/svg" viewBox="0 0 600 340" width="600" height="340">
<defs><linearGradient id="bg" x2="1" y2="1"><stop stop-color="#edf0e5"/><stop offset="1" stop-color="#c8d8c5"/></linearGradient><filter id="shadow" x="-40%" y="-40%" width="180%" height="180%"><feDropShadow dx="0" dy="13" stdDeviation="15" flood-color="#245f50" flood-opacity=".14"/></filter></defs>
<rect width="600" height="340" fill="url(#bg)"/><path d="M-30 12C180 -52 355 90 632 19" fill="none" stroke="#245f50" opacity=".065"/><path d="M17 12C195 -52 346 137 632 66" fill="none" stroke="#245f50" opacity=".065"/><path d="M64 12C210 -52 337 184 632 113" fill="none" stroke="#245f50" opacity=".065"/><path d="M111 12C225 -52 328 231 632 160" fill="none" stroke="#245f50" opacity=".065"/><path d="M158 12C240 -52 319 278 632 207" fill="none" stroke="#245f50" opacity=".065"/>
<circle cx="521" cy="86" r="43" fill="#c39a68" opacity=".24"/><circle cx="521" cy="86" r="28" fill="#c39a68" opacity=".2"/>
<path d="M0 246C124 204 175 263 293 249s175-34 307-2" fill="none" stroke="#245f50" stroke-width="1.4" opacity=".27"/>
<path d="M0 265Q145 215 286 276T600 250v90H0Z" fill="#c8d8c5" opacity=".72"/><path d="M381 277v-33l22-12 22 12v33" fill="none" stroke="#245f50" stroke-width="2" opacity=".28"/><path d="M392 256h10v11h-10" fill="none" stroke="#245f50" stroke-width="1.5" opacity=".3"/><path d="M445 277v-40l22-12 22 12v40" fill="none" stroke="#245f50" stroke-width="2" opacity=".28"/><path d="M456 249h10v11h-10" fill="none" stroke="#245f50" stroke-width="1.5" opacity=".3"/><path d="M503 277v-44l22-12 22 12v44" fill="none" stroke="#245f50" stroke-width="2" opacity=".28"/><path d="M514 245h10v11h-10" fill="none" stroke="#245f50" stroke-width="1.5" opacity=".3"/><circle cx="38" cy="278" r="2" fill="#c39a68" opacity=".45"/><circle cx="59" cy="268" r="3" fill="#c39a68" opacity=".45"/><circle cx="80" cy="278" r="4" fill="#c39a68" opacity=".45"/><circle cx="101" cy="268" r="2" fill="#c39a68" opacity=".45"/><circle cx="122" cy="278" r="3" fill="#c39a68" opacity=".45"/>
<path d="M35 246v-61m0 12c-17-21-28-14-34-5m34 5c8-22 22-24 32-17m-32 17c18-8 30-5 36 5" fill="none" stroke="#245f50" stroke-width="2.5" stroke-linecap="round" opacity=".31"/>
<circle cx="285" cy="161" r="108" fill="#edf0e5" filter="url(#shadow)"/><circle cx="285" cy="161" r="87" fill="none" stroke="#c39a68" stroke-width="1.7" opacity=".55"/>
<g transform="translate(201 77) scale(1.4)" fill="none" stroke="#245f50" stroke-width="3.2" stroke-linecap="round" stroke-linejoin="round"><path d="M20 25h80v60H20zM28 91h64M60 85v13M35 42h49M35 55h31M35 68h40"/></g>
<path d="M22 28h75" stroke="#245f50" stroke-width="2" opacity=".36"/><circle cx="110" cy="28" r="4" fill="#c39a68"/>
<path d="M22 315h556" stroke="#245f50" stroke-width="1" opacity=".24"/><text x="24" y="304" font-family="Arial,sans-serif" font-size="12" letter-spacing="2" fill="#245f50" opacity=".75">WK-003</text>
<circle cx="550" cy="304" r="9" fill="none" stroke="#245f50" opacity=".45"/><circle cx="550" cy="304" r="3" fill="#c39a68"/>
</svg>