<svg xmlns="http://www.w3.org/2000/svg" viewBox="0 0 600 340" width="600" height="340">
<defs><linearGradient id="bg" x2="1" y2="1"><stop stop-color="#e7ebdd"/><stop offset="1" stop-color="#cad5b2"/></linearGradient><filter id="shadow" x="-40%" y="-40%" width="180%" height="180%"><feDropShadow dx="0" dy="13" stdDeviation="15" flood-color="#4d6d4f" flood-opacity=".14"/></filter></defs>
<rect width="600" height="340" fill="url(#bg)"/><path d="M-30 12C180 -4 355 90 632 19" fill="none" stroke="#4d6d4f" opacity=".065"/><path d="M56 12C195 -4 346 176 632 105" fill="none" stroke="#4d6d4f" opacity=".065"/><path d="M142 12C210 -4 337 262 632 191" fill="none" stroke="#4d6d4f" opacity=".065"/><path d="M228 12C225 -4 328 348 632 277" fill="none" stroke="#4d6d4f" opacity=".065"/><path d="M314 12C240 -4 319 434 632 363" fill="none" stroke="#4d6d4f" opacity=".065"/>
<circle cx="473" cy="86" r="43" fill="#b18b50" opacity=".24"/><circle cx="473" cy="86" r="28" fill="#b18b50" opacity=".2"/>
<path d="M0 246C124 252 175 263 293 249s175-34 307-2" fill="none" stroke="#4d6d4f" stroke-width="1.4" opacity=".27"/>
<path d="M0 275Q122 266 252 260T600 281v59H0Z" fill="#cad5b2" opacity=".75"/><path d="M375 277v-39l22-12 22 12v39" fill="none" stroke="#4d6d4f" stroke-width="2" opacity=".28"/><path d="M386 250h10v11h-10" fill="none" stroke="#4d6d4f" stroke-width="1.5" opacity=".3"/><path d="M442 277v-43l22-12 22 12v43" fill="none" stroke="#4d6d4f" stroke-width="2" opacity=".28"/><path d="M453 246h10v11h-10" fill="none" stroke="#4d6d4f" stroke-width="1.5" opacity=".3"/><path d="M507 277v-35l22-12 22 12v35" fill="none" stroke="#4d6d4f" stroke-width="2" opacity=".28"/><path d="M518 254h10v11h-10" fill="none" stroke="#4d6d4f" stroke-width="1.5" opacity=".3"/><circle cx="38" cy="278" r="2" fill="#b18b50" opacity=".45"/><circle cx="59" cy="268" r="3" fill="#b18b50" opacity=".45"/><circle cx="80" cy="278" r="4" fill="#b18b50" opacity=".45"/><circle cx="101" cy="268" r="2" fill="#b18b50" opacity=".45"/><circle cx="122" cy="278" r="3" fill="#b18b50" opacity=".45"/>
<path d="M35 246v-61m0 12c-17-21-28-14-34-5m34 5c8-22 22-24 32-17m-32 17c18-8 30-5 36 5" fill="none" stroke="#4d6d4f" stroke-width="2.5" stroke-linecap="round" opacity=".31"/>
<rect x="108" y="79" width="204" height="204" rx="48" fill="#e7ebdd" transform="rotate(-8 210 184)" filter="url(#shadow)"/><circle cx="210" cy="184" r="87" fill="none" stroke="#b18b50" stroke-width="1.7" opacity=".55"/>
<g transform="translate(126 100) scale(1.4)" fill="none" stroke="#4d6d4f" stroke-width="3.2" stroke-linecap="round" stroke-linejoin="round"><path d="M28 95 47 28l12 3-19 67ZM47 28l6-13 6 16M57 95l19-67 12 3-19 67ZM76 28l6-13 6 16"/></g>
<path d="M22 28h75" stroke="#4d6d4f" stroke-width="2" opacity=".36"/><circle cx="110" cy="28" r="4" fill="#b18b50"/>
<path d="M22 315h556" stroke="#4d6d4f" stroke-width="1" opacity=".24"/><text x="24" y="304" font-family="Arial,sans-serif" font-size="12" letter-spacing="2" fill="#4d6d4f" opacity=".75">WK-009</text>
<circle cx="550" cy="304" r="9" fill="none" stroke="#4d6d4f" opacity=".45"/><circle cx="550" cy="304" r="3" fill="#b18b50"/>
</svg>