<svg xmlns="http://www.w3.org/2000/svg" viewBox="0 0 600 340" width="600" height="340">
<defs><linearGradient id="bg" x2="1" y2="1"><stop stop-color="#e8e5da"/><stop offset="1" stop-color="#d3c6ae"/></linearGradient><filter id="shadow" x="-40%" y="-40%" width="180%" height="180%"><feDropShadow dx="0" dy="13" stdDeviation="15" flood-color="#536b61" flood-opacity=".14"/></filter></defs>
<rect width="600" height="340" fill="url(#bg)"/><path d="M-30 12C180 -52 355 90 632 19" fill="none" stroke="#536b61" opacity=".065"/><path d="M56 12C195 -52 346 176 632 105" fill="none" stroke="#536b61" opacity=".065"/><path d="M142 12C210 -52 337 262 632 191" fill="none" stroke="#536b61" opacity=".065"/><path d="M228 12C225 -52 328 348 632 277" fill="none" stroke="#536b61" opacity=".065"/><path d="M314 12C240 -52 319 434 632 363" fill="none" stroke="#536b61" opacity=".065"/>
<circle cx="521" cy="86" r="43" fill="#ad794e" opacity=".24"/><circle cx="521" cy="86" r="28" fill="#ad794e" opacity=".2"/>
<path d="M0 246C124 204 175 263 293 249s175-34 307-2" fill="none" stroke="#536b61" stroke-width="1.4" opacity=".27"/>
<path d="M0 275Q122 314 252 260T600 281v59H0Z" fill="#d3c6ae" opacity=".75"/><path d="M47 277v-30l22-12 22 12v30" fill="none" stroke="#536b61" stroke-width="2" opacity=".28"/><path d="M58 259h10v11h-10" fill="none" stroke="#536b61" stroke-width="1.5" opacity=".3"/><path d="M112 277v-29l22-12 22 12v29" fill="none" stroke="#536b61" stroke-width="2" opacity=".28"/><path d="M123 260h10v11h-10" fill="none" stroke="#536b61" stroke-width="1.5" opacity=".3"/><path d="M175 277v-28l22-12 22 12v28" fill="none" stroke="#536b61" stroke-width="2" opacity=".28"/><path d="M186 261h10v11h-10" fill="none" stroke="#536b61" stroke-width="1.5" opacity=".3"/><circle cx="38" cy="278" r="2" fill="#ad794e" opacity=".45"/><circle cx="58" cy="268" r="3" fill="#ad794e" opacity=".45"/><circle cx="78" cy="278" r="4" fill="#ad794e" opacity=".45"/><circle cx="98" cy="268" r="2" fill="#ad794e" opacity=".45"/><circle cx="118" cy="278" r="3" fill="#ad794e" opacity=".45"/>
<path d="M35 246v-61m0 12c-17-21-28-14-34-5m34 5c8-22 22-24 32-17m-32 17c18-8 30-5 36 5" fill="none" stroke="#536b61" stroke-width="2.5" stroke-linecap="round" opacity=".31"/>
<circle cx="382" cy="175" r="108" fill="#e8e5da" filter="url(#shadow)"/><circle cx="382" cy="175" r="87" fill="none" stroke="#ad794e" stroke-width="1.7" opacity=".55"/>
<g transform="translate(298 91) scale(1.4)" fill="none" stroke="#536b61" stroke-width="3.2" stroke-linecap="round" stroke-linejoin="round"><path d="M28 37h64v59H28zM40 37V25h40v12M60 52v29M46 66h28"/><path d="M37 96h46"/></g>
<path d="M22 28h75" stroke="#536b61" stroke-width="2" opacity=".36"/><circle cx="110" cy="28" r="4" fill="#ad794e"/>
<path d="M22 315h556" stroke="#536b61" stroke-width="1" opacity=".24"/><text x="24" y="304" font-family="Arial,sans-serif" font-size="12" letter-spacing="2" fill="#536b61" opacity=".75">WK-026</text>
<circle cx="550" cy="304" r="9" fill="none" stroke="#536b61" opacity=".45"/><circle cx="550" cy="304" r="3" fill="#ad794e"/>
</svg>