<svg xmlns="http://www.w3.org/2000/svg" viewBox="0 0 600 340" width="600" height="340">
<defs><linearGradient id="bg" x2="1" y2="1"><stop stop-color="#e2ebef"/><stop offset="1" stop-color="#b3ced1"/></linearGradient><filter id="shadow" x="-40%" y="-40%" width="180%" height="180%"><feDropShadow dx="0" dy="13" stdDeviation="15" flood-color="#356b78" flood-opacity=".14"/></filter></defs>
<rect width="600" height="340" fill="url(#bg)"/><path d="M-30 12C180 -57 355 90 632 19" fill="none" stroke="#356b78" opacity=".065"/><path d="M43 12C195 -57 346 163 632 92" fill="none" stroke="#356b78" opacity=".065"/><path d="M116 12C210 -57 337 236 632 165" fill="none" stroke="#356b78" opacity=".065"/><path d="M189 12C225 -57 328 309 632 238" fill="none" stroke="#356b78" opacity=".065"/><path d="M262 12C240 -57 319 382 632 311" fill="none" stroke="#356b78" opacity=".065"/>
<circle cx="526" cy="86" r="43" fill="#b58d54" opacity=".24"/><circle cx="526" cy="86" r="28" fill="#b58d54" opacity=".2"/>
<path d="M0 246C124 199 175 263 293 249s175-34 307-2" fill="none" stroke="#356b78" stroke-width="1.4" opacity=".27"/>
<path d="M0 265Q145 210 286 276T600 250v90H0Z" fill="#b3ced1" opacity=".72"/><path d="M378 277v-41l22-12 22 12v41" fill="none" stroke="#356b78" stroke-width="2" opacity=".28"/><path d="M389 248h10v11h-10" fill="none" stroke="#356b78" stroke-width="1.5" opacity=".3"/><path d="M438 277v-44l22-12 22 12v44" fill="none" stroke="#356b78" stroke-width="2" opacity=".28"/><path d="M449 245h10v11h-10" fill="none" stroke="#356b78" stroke-width="1.5" opacity=".3"/><path d="M505 277v-46l22-12 22 12v46" fill="none" stroke="#356b78" stroke-width="2" opacity=".28"/><path d="M516 243h10v11h-10" fill="none" stroke="#356b78" stroke-width="1.5" opacity=".3"/><circle cx="38" cy="278" r="2" fill="#b58d54" opacity=".45"/><circle cx="58" cy="268" r="3" fill="#b58d54" opacity=".45"/><circle cx="78" cy="278" r="4" fill="#b58d54" opacity=".45"/><circle cx="98" cy="268" r="2" fill="#b58d54" opacity=".45"/><circle cx="118" cy="278" r="3" fill="#b58d54" opacity=".45"/>
<path d="M35 246v-61m0 12c-17-21-28-14-34-5m34 5c8-22 22-24 32-17m-32 17c18-8 30-5 36 5" fill="none" stroke="#356b78" stroke-width="2.5" stroke-linecap="round" opacity=".31"/>
<rect x="193" y="63" width="204" height="204" rx="48" fill="#e2ebef" transform="rotate(-8 295 168)" filter="url(#shadow)"/><circle cx="295" cy="168" r="87" fill="none" stroke="#b58d54" stroke-width="1.7" opacity=".55"/>
<g transform="translate(211 84) scale(1.4)" fill="none" stroke="#356b78" stroke-width="3.2" stroke-linecap="round" stroke-linejoin="round"><path d="M25 52h70l-8 50H33zM33 52l9-22h36l9 22M43 69h34"/><circle cx="48" cy="80" r="7"/><circle cx="72" cy="83" r="8"/></g>
<path d="M22 28h75" stroke="#356b78" stroke-width="2" opacity=".36"/><circle cx="110" cy="28" r="4" fill="#b58d54"/>
<path d="M22 315h556" stroke="#356b78" stroke-width="1" opacity=".24"/><text x="24" y="304" font-family="Arial,sans-serif" font-size="12" letter-spacing="2" fill="#356b78" opacity=".75">WK-025</text>
<circle cx="550" cy="304" r="9" fill="none" stroke="#356b78" opacity=".45"/><circle cx="550" cy="304" r="3" fill="#b58d54"/>
</svg>