<svg xmlns="http://www.w3.org/2000/svg" viewBox="0 0 600 340" width="600" height="340">
<defs><linearGradient id="bg" x2="1" y2="1"><stop stop-color="#e5eeeb"/><stop offset="1" stop-color="#a8cac4"/></linearGradient><filter id="shadow" x="-40%" y="-40%" width="180%" height="180%"><feDropShadow dx="0" dy="13" stdDeviation="15" flood-color="#206c6c" flood-opacity=".14"/></filter></defs>
<rect width="600" height="340" fill="url(#bg)"/><path d="M-30 12C180 -45 355 90 632 19" fill="none" stroke="#206c6c" opacity=".065"/><path d="M4 12C195 -45 346 124 632 53" fill="none" stroke="#206c6c" opacity=".065"/><path d="M38 12C210 -45 337 158 632 87" fill="none" stroke="#206c6c" opacity=".065"/><path d="M72 12C225 -45 328 192 632 121" fill="none" stroke="#206c6c" opacity=".065"/><path d="M106 12C240 -45 319 226 632 155" fill="none" stroke="#206c6c" opacity=".065"/>
<circle cx="514" cy="86" r="43" fill="#b78e55" opacity=".24"/><circle cx="514" cy="86" r="28" fill="#b78e55" opacity=".2"/>
<path d="M0 246C124 211 175 263 293 249s175-34 307-2" fill="none" stroke="#206c6c" stroke-width="1.4" opacity=".27"/>
<path d="M0 275Q122 307 252 260T600 281v59H0Z" fill="#a8cac4" opacity=".75"/><path d="M44 277v-34l22-12 22 12v34" fill="none" stroke="#206c6c" stroke-width="2" opacity=".28"/><path d="M55 255h10v11h-10" fill="none" stroke="#206c6c" stroke-width="1.5" opacity=".3"/><path d="M110 277v-31l22-12 22 12v31" fill="none" stroke="#206c6c" stroke-width="2" opacity=".28"/><path d="M121 258h10v11h-10" fill="none" stroke="#206c6c" stroke-width="1.5" opacity=".3"/><path d="M169 277v-29l22-12 22 12v29" fill="none" stroke="#206c6c" stroke-width="2" opacity=".28"/><path d="M180 260h10v11h-10" fill="none" stroke="#206c6c" stroke-width="1.5" opacity=".3"/><circle cx="38" cy="278" r="2" fill="#b78e55" opacity=".45"/><circle cx="57" cy="268" r="3" fill="#b78e55" opacity=".45"/><circle cx="76" cy="278" r="4" fill="#b78e55" opacity=".45"/><circle cx="95" cy="268" r="2" fill="#b78e55" opacity=".45"/><circle cx="114" cy="278" r="3" fill="#b78e55" opacity=".45"/>
<path d="M35 246v-61m0 12c-17-21-28-14-34-5m34 5c8-22 22-24 32-17m-32 17c18-8 30-5 36 5" fill="none" stroke="#206c6c" stroke-width="2.5" stroke-linecap="round" opacity=".31"/>
<circle cx="384" cy="170" r="108" fill="#e5eeeb" filter="url(#shadow)"/><circle cx="384" cy="170" r="87" fill="none" stroke="#b78e55" stroke-width="1.7" opacity=".55"/>
<g transform="translate(300 86) scale(1.4)" fill="none" stroke="#206c6c" stroke-width="3.2" stroke-linecap="round" stroke-linejoin="round"><path d="m60 19 35 13v26c0 20-13 35-35 45C38 93 25 78 25 58V32zM60 38v40m-18-21h36"/></g>
<path d="M22 28h75" stroke="#206c6c" stroke-width="2" opacity=".36"/><circle cx="110" cy="28" r="4" fill="#b78e55"/>
<path d="M22 315h556" stroke="#206c6c" stroke-width="1" opacity=".24"/><text x="24" y="304" font-family="Arial,sans-serif" font-size="12" letter-spacing="2" fill="#206c6c" opacity=".75">WK-030</text>
<circle cx="550" cy="304" r="9" fill="none" stroke="#206c6c" opacity=".45"/><circle cx="550" cy="304" r="3" fill="#b78e55"/>
</svg>