<svg xmlns="http://www.w3.org/2000/svg" viewBox="0 0 600 340" width="600" height="340">
<defs><linearGradient id="bg" x2="1" y2="1"><stop stop-color="#e5eee7"/><stop offset="1" stop-color="#b8d2bf"/></linearGradient><filter id="shadow" x="-40%" y="-40%" width="180%" height="180%"><feDropShadow dx="0" dy="13" stdDeviation="15" flood-color="#1c6859" flood-opacity=".14"/></filter></defs>
<rect width="600" height="340" fill="url(#bg)"/><path d="M-30 12C180 -31 355 90 632 19" fill="none" stroke="#1c6859" opacity=".065"/><path d="M4 12C195 -31 346 124 632 53" fill="none" stroke="#1c6859" opacity=".065"/><path d="M38 12C210 -31 337 158 632 87" fill="none" stroke="#1c6859" opacity=".065"/><path d="M72 12C225 -31 328 192 632 121" fill="none" stroke="#1c6859" opacity=".065"/><path d="M106 12C240 -31 319 226 632 155" fill="none" stroke="#1c6859" opacity=".065"/>
<circle cx="500" cy="86" r="43" fill="#a77a46" opacity=".24"/><circle cx="500" cy="86" r="28" fill="#a77a46" opacity=".2"/>
<path d="M0 246C124 225 175 263 293 249s175-34 307-2" fill="none" stroke="#1c6859" stroke-width="1.4" opacity=".27"/>
<path d="M0 275Q122 293 252 260T600 281v59H0Z" fill="#b8d2bf" opacity=".75"/><path d="M379 277v-39l22-12 22 12v39" fill="none" stroke="#1c6859" stroke-width="2" opacity=".28"/><path d="M390 250h10v11h-10" fill="none" stroke="#1c6859" stroke-width="1.5" opacity=".3"/><path d="M439 277v-33l22-12 22 12v33" fill="none" stroke="#1c6859" stroke-width="2" opacity=".28"/><path d="M450 256h10v11h-10" fill="none" stroke="#1c6859" stroke-width="1.5" opacity=".3"/><path d="M505 277v-40l22-12 22 12v40" fill="none" stroke="#1c6859" stroke-width="2" opacity=".28"/><path d="M516 249h10v11h-10" fill="none" stroke="#1c6859" stroke-width="1.5" opacity=".3"/><circle cx="38" cy="278" r="2" fill="#a77a46" opacity=".45"/><circle cx="56" cy="268" r="3" fill="#a77a46" opacity=".45"/><circle cx="74" cy="278" r="4" fill="#a77a46" opacity=".45"/><circle cx="92" cy="268" r="2" fill="#a77a46" opacity=".45"/><circle cx="110" cy="278" r="3" fill="#a77a46" opacity=".45"/>
<path d="M35 246v-61m0 12c-17-21-28-14-34-5m34 5c8-22 22-24 32-17m-32 17c18-8 30-5 36 5" fill="none" stroke="#1c6859" stroke-width="2.5" stroke-linecap="round" opacity=".31"/>
<rect x="99" y="72" width="204" height="204" rx="48" fill="#e5eee7" transform="rotate(-8 201 177)" filter="url(#shadow)"/><circle cx="201" cy="177" r="87" fill="none" stroke="#a77a46" stroke-width="1.7" opacity=".55"/>
<g transform="translate(117 93) scale(1.4)" fill="none" stroke="#1c6859" stroke-width="3.2" stroke-linecap="round" stroke-linejoin="round"><path d="m26 73 8-25h52l8 25v19H26zM34 48l8-15h36l8 15M30 70h60M39 92v8m42-8v8"/><circle cx="39" cy="78" r="4"/><circle cx="81" cy="78" r="4"/></g>
<path d="M22 28h75" stroke="#1c6859" stroke-width="2" opacity=".36"/><circle cx="110" cy="28" r="4" fill="#a77a46"/>
<path d="M22 315h556" stroke="#1c6859" stroke-width="1" opacity=".24"/><text x="24" y="304" font-family="Arial,sans-serif" font-size="12" letter-spacing="2" fill="#1c6859" opacity=".75">WK-046</text>
<circle cx="550" cy="304" r="9" fill="none" stroke="#1c6859" opacity=".45"/><circle cx="550" cy="304" r="3" fill="#a77a46"/>
</svg>